<svg version="1.1" id="Layer_1" xmlns="http://www.w3.org/2000/svg" xmlns:xlink="http://www.w3.org/1999/xlink" x="0px" y="0px"
	 width="100%" viewBox="0 0 500 500" enable-background="new 0 0 500 500" xml:space="preserve">
<path fill="#FEFEFE" opacity="1.000000" stroke="none" 
	d="
M267.000000,0.999999 
	C344.964844,1.000000 422.929657,1.000000 500.947266,1.000000 
	C500.947266,167.556366 500.947266,334.112732 500.947266,501.000000 
	C423.645538,501.000000 346.290619,501.000000 268.757477,500.710632 
	C273.048523,499.938507 277.517792,499.455750 282.414307,498.984009 
	C290.558258,497.658905 298.274994,496.322815 306.379395,494.947601 
	C313.843506,492.936981 320.919922,490.965454 328.334167,488.849854 
	C337.126190,485.296844 345.779480,482.298340 353.961823,478.328979 
	C359.083160,475.844513 363.907410,472.480988 363.161682,465.088257 
	C362.775238,461.257111 361.338989,460.673248 358.177032,461.081787 
	C356.499115,461.298523 354.773987,461.149414 353.192078,460.849274 
	C357.060028,456.295288 360.943298,452.170135 364.528717,447.800568 
	C381.874420,426.661041 393.939087,402.783051 400.748840,376.332428 
	C401.415009,373.744843 400.524261,370.060364 398.965271,367.879150 
	C398.141785,366.726929 393.851959,366.847626 391.916504,367.877350 
	C367.137177,381.060730 341.134766,387.255005 313.003967,383.035400 
	C305.981232,381.981934 303.215576,386.112396 305.903564,392.816040 
	C307.997101,398.037262 310.158966,403.231140 312.294098,408.446106 
	C311.611328,408.864349 311.223511,409.210785 310.770355,409.363983 
	C283.926361,418.437988 256.647583,419.882080 229.111298,413.299652 
	C196.576294,405.522278 169.978409,388.280304 149.274643,361.970795 
	C144.673447,356.123779 142.505478,355.897552 136.487671,360.420166 
	C129.835388,365.419617 123.171822,370.404419 116.552689,375.447479 
	C111.614464,379.209930 111.080093,381.976837 114.865112,386.656860 
	C160.788284,443.439026 220.177261,466.740143 292.352325,457.226196 
	C304.582184,455.614075 316.517029,451.763763 328.849243,448.886627 
	C331.416107,454.922760 334.203308,461.477173 336.926819,468.384735 
	C333.240448,470.490051 329.617767,472.242157 325.597198,474.003937 
	C318.465668,476.002258 311.732056,477.990936 304.575653,479.985657 
	C296.766663,481.332703 289.380432,482.673676 281.560059,484.012451 
	C276.109161,484.343262 271.088196,484.623871 266.077881,485.034698 
	C264.038208,485.201935 262.021698,485.651947 259.526917,485.973938 
	C253.042664,485.973389 247.026138,485.972260 240.597305,485.917175 
	C235.110321,485.316254 230.035614,484.769257 224.526917,484.156647 
	C219.054504,483.437317 214.016113,482.783630 208.566162,482.079895 
	C188.742523,478.124054 169.918228,472.277191 151.993164,463.890808 
	C110.804718,444.620453 77.866188,415.699829 53.238655,377.530151 
	C47.707489,368.957520 43.682003,359.413422 39.436539,350.277893 
	C86.745224,350.239258 133.580719,350.239258 180.052963,350.239258 
	C181.699417,346.189972 183.175247,342.560333 184.851349,338.691132 
	C187.947525,332.398682 190.843414,326.345825 193.869781,319.937256 
	C197.004318,313.313660 200.150818,307.108185 202.938065,300.745331 
	C203.965546,298.399811 204.629257,295.685089 204.638977,293.135651 
	C204.754333,262.837189 204.803177,232.537476 204.568817,202.240402 
	C204.547119,199.435669 203.147202,196.014008 201.231323,193.953705 
	C189.109848,180.918549 176.588242,168.256439 164.377380,155.302750 
	C161.512833,152.263962 158.512390,151.063568 154.333603,151.075073 
	C115.879097,151.181000 77.424049,151.091217 39.014122,150.694977 
	C51.108418,124.233871 67.919754,101.648849 88.582474,81.690300 
	C114.401939,56.750763 144.385910,38.924229 178.397995,27.864960 
	C189.093002,24.387403 200.136353,21.981150 211.460876,19.084511 
	C216.936203,18.396912 221.970917,17.709360 227.466705,17.032362 
	C232.953247,16.699619 237.978729,16.356323 243.471741,16.025505 
	C249.624329,16.034822 255.309357,16.031664 261.295898,16.315022 
	C268.061249,17.059999 274.525024,17.518463 281.404236,17.998339 
	C288.211212,19.023424 294.602844,20.027096 301.246094,21.306488 
	C308.664368,23.391729 315.830963,25.201246 323.226746,27.284111 
	C328.848053,29.624939 334.194214,31.824701 339.646393,33.719379 
	C344.272522,35.327007 348.987183,36.723999 353.746704,37.863022 
	C354.604340,38.068264 356.560059,36.770432 356.833527,35.826176 
	C358.493286,30.095348 357.136597,25.501884 351.504395,22.944277 
	C342.253784,18.743513 332.526367,15.592769 322.659088,11.849543 
	C314.877075,9.802735 307.436005,7.905663 299.587891,5.996359 
	C293.117767,4.995061 287.054688,4.005995 280.572693,2.999868 
	C275.769196,2.321871 271.384583,1.660934 267.000000,0.999999 
M212.923264,354.646759 
	C210.572311,358.003601 208.221375,361.360474 205.137314,364.961243 
	C199.987457,365.761047 194.837601,366.560822 189.944031,367.320770 
	C191.648315,369.466797 194.008774,372.408447 196.336533,375.375763 
	C204.339996,385.578278 218.394485,383.866272 224.491959,371.520325 
	C226.353241,367.390259 228.214523,363.260162 230.666443,358.747040 
	C233.231049,353.203247 235.795654,347.659454 238.868332,341.661621 
	C241.475662,336.108673 244.082993,330.555756 247.065628,324.370087 
	C249.394867,319.282013 251.724106,314.193939 254.641571,308.717407 
	C257.488312,302.505981 260.335083,296.294556 263.732849,289.670013 
	C266.479279,283.554779 269.225708,277.439545 272.509460,271.040558 
	C275.006042,265.692047 277.502655,260.343536 280.520020,254.531235 
	C283.364105,248.360504 286.208191,242.189789 289.588531,235.593109 
	C292.020416,230.766739 294.452301,225.940369 297.026276,222.027451 
	C297.041412,262.018494 297.049103,302.009552 297.079346,342.000610 
	C297.084137,348.319824 298.851562,350.210754 304.951569,350.213806 
	C356.940277,350.239655 408.928986,350.241302 460.917694,350.210266 
	C466.628052,350.206848 468.082184,348.722595 468.084381,343.160583 
	C468.103210,295.670898 468.125916,248.181137 467.998871,200.691788 
	C467.993286,198.608124 467.091400,196.014069 465.686798,194.526855 
	C452.771759,180.851852 439.709778,167.313446 426.514252,153.908813 
	C425.062592,152.434143 422.509003,151.277863 420.461304,151.269714 
	C381.803650,151.115524 343.145172,151.138565 304.486969,151.179214 
	C299.401215,151.184555 297.209839,153.433624 297.087494,158.471222 
	C296.970215,163.298935 296.972961,168.129547 296.326691,172.764587 
	C295.735291,172.815750 295.143921,172.866898 294.552521,172.918045 
	C297.645569,179.835602 293.697174,185.412384 291.017609,191.198746 
	C284.955139,204.290237 278.829102,217.352249 272.210052,230.934601 
	C269.393219,236.924881 266.576355,242.915161 263.227509,249.341537 
	C260.514130,255.228317 257.800751,261.115112 254.683075,267.584137 
	C251.877747,273.393768 249.072418,279.203400 245.849258,285.622009 
	C243.201126,291.404602 240.552994,297.187225 237.329147,303.353333 
	C234.858627,308.851257 232.388123,314.349152 229.322189,320.231750 
	C226.745285,325.773468 224.168381,331.315216 221.128632,337.345825 
	C218.499069,342.901703 215.869492,348.457581 212.923264,354.646759 
M338.714752,113.744728 
	C347.631195,122.667374 356.693115,131.451218 365.397675,140.575958 
	C369.281677,144.647400 371.656342,145.481583 376.021118,142.263443 
	C383.519806,136.734695 390.976776,131.147263 398.369171,125.477425 
	C402.303802,122.459610 402.614349,119.679184 399.734161,115.634338 
	C398.673645,114.144981 397.535645,112.703598 396.347839,111.313072 
	C347.547913,54.184635 285.996765,32.839012 212.309372,46.060200 
	C203.245285,47.686497 194.422577,50.657978 185.254883,53.067360 
	C183.209396,48.100018 181.175781,43.204189 179.175735,38.294689 
	C176.064636,30.657946 172.205154,29.833887 166.220978,35.584270 
	C140.433228,60.364616 122.599426,89.908928 113.462135,124.523407 
	C112.725410,127.314293 113.159065,131.448761 114.816895,133.589966 
	C117.189133,136.653885 120.748184,134.645752 123.819603,132.989044 
	C147.473495,120.230408 172.618057,114.848137 199.413162,118.248421 
	C202.645905,118.658646 206.372055,119.800247 207.837448,116.388824 
	C208.894989,113.926865 208.327667,110.352928 207.484406,107.579147 
	C205.972229,102.604988 203.707001,97.859756 201.552063,92.511520 
	C251.066849,77.095306 296.439301,83.100243 338.714752,113.744728 
z"/>
<path fill="#FFFFFF" opacity="1.000000" stroke="none" 
	d="
M232.000000,501.000000 
	C155.072968,501.000000 78.145927,501.000000 1.000000,501.000000 
	C1.000000,424.312592 1.000000,347.624939 1.301558,270.738556 
	C2.818781,279.733154 3.515204,289.031097 5.341892,298.101379 
	C12.452568,333.408997 26.074329,366.005951 46.970623,395.457428 
	C61.210194,415.526825 78.012833,433.130859 97.444786,448.244781 
	C117.686752,463.988800 139.657303,476.825165 163.880630,485.132050 
	C178.553467,490.163788 193.934875,493.129364 209.286346,497.293701 
	C214.371902,498.080505 219.169052,498.596863 224.265808,499.373901 
	C227.030090,499.763702 229.494751,499.892761 231.978149,500.265991 
	C231.996872,500.510193 232.000000,501.000000 232.000000,501.000000 
z"/>
<path fill="#FFFFFF" opacity="1.000000" stroke="none" 
	d="
M1.000001,231.000000 
	C1.000000,154.405975 1.000000,77.811943 1.000000,1.000000 
	C78.020760,1.000000 155.041718,1.000000 232.528061,1.244371 
	C232.993439,1.488743 232.955841,1.976082 232.519638,1.969771 
	C230.048569,2.024015 228.013718,2.084570 225.571991,2.159067 
	C220.106354,3.087564 215.047607,4.002119 209.556778,4.925118 
	C207.796478,5.017832 206.443710,4.968161 205.143707,5.206439 
	C185.281448,8.846971 166.096283,14.823048 147.778900,23.221603 
	C101.971375,44.224438 65.504471,76.088211 38.801830,118.866577 
	C20.722889,147.829529 9.004940,179.238861 3.934337,213.068146 
	C3.036607,219.057480 1.982106,225.023315 1.000001,231.000000 
z"/>
<path fill="#A8CBF3" opacity="1.000000" stroke="none" 
	d="
M1.000001,231.468658 
	C1.982106,225.023315 3.036607,219.057480 3.934337,213.068146 
	C9.004940,179.238861 20.722889,147.829529 38.801830,118.866577 
	C65.504471,76.088211 101.971375,44.224438 147.778900,23.221603 
	C166.096283,14.823048 185.281448,8.846971 205.143707,5.206439 
	C206.443710,4.968161 207.796478,5.017832 209.608322,5.346927 
	C210.401382,10.201713 210.710831,14.643134 211.020264,19.084557 
	C200.136353,21.981150 189.093002,24.387403 178.397995,27.864960 
	C144.385910,38.924229 114.401939,56.750763 88.582474,81.690300 
	C67.919754,101.648849 51.108418,124.233871 38.805603,150.965637 
	C36.894760,156.056946 35.237408,160.514145 33.274651,165.109924 
	C32.658237,165.606537 32.213448,165.913712 32.055279,166.329849 
	C19.938082,198.208801 14.488733,231.027817 16.753502,265.230255 
	C18.233965,287.588104 22.550104,309.202118 29.999937,330.249146 
	C30.843630,332.632751 32.370159,334.774597 33.706055,337.417664 
	C35.542488,341.976715 37.252922,346.146637 38.963356,350.316559 
	C43.682003,359.413422 47.707489,368.957520 53.238655,377.530151 
	C77.866188,415.699829 110.804718,444.620453 151.993164,463.890808 
	C169.918228,472.277191 188.742523,478.124054 208.573914,482.533081 
	C208.994797,487.698578 208.996368,492.360901 208.997955,497.023254 
	C193.934875,493.129364 178.553467,490.163788 163.880630,485.132050 
	C139.657303,476.825165 117.686752,463.988800 97.444786,448.244781 
	C78.012833,433.130859 61.210194,415.526825 46.970623,395.457428 
	C26.074329,366.005951 12.452568,333.408997 5.341892,298.101379 
	C3.515204,289.031097 2.818781,279.733154 1.301558,270.269897 
	C1.000000,257.312439 1.000000,244.624878 1.000001,231.468658 
z"/>
<path fill="#D7E7FA" opacity="1.000000" stroke="none" 
	d="
M259.994659,485.973328 
	C262.021698,485.651947 264.038208,485.201935 266.077881,485.034698 
	C271.088196,484.623871 276.109161,484.343262 281.562195,484.476868 
	C281.994690,489.619965 281.990875,494.296478 281.987061,498.972992 
	C277.517792,499.455750 273.048523,499.938507 268.289612,500.710632 
	C265.299988,501.000000 262.599976,501.000000 259.502441,500.586273 
	C259.401489,495.439484 259.698059,490.706390 259.994659,485.973328 
z"/>
<path fill="#D7E7FA" opacity="1.000000" stroke="none" 
	d="
M266.571533,0.999999 
	C271.384583,1.660934 275.769196,2.321871 280.575989,3.464052 
	C280.995056,8.622506 280.991943,13.299715 280.988831,17.976925 
	C274.525024,17.518463 268.061249,17.059999 261.297882,15.845760 
	C260.998871,10.393322 260.999451,5.696661 261.000000,1.000000 
	C262.714355,1.000000 264.428711,1.000000 266.571533,0.999999 
z"/>
<path fill="#CAE0F9" opacity="1.000000" stroke="none" 
	d="
M259.526917,485.973938 
	C259.698059,490.706390 259.401489,495.439484 259.052460,500.586273 
	C253.311966,501.000000 247.623917,501.000000 241.466980,500.533844 
	C241.001907,495.368835 241.005753,490.669983 241.009598,485.971130 
	C247.026138,485.972260 253.042664,485.973389 259.526917,485.973938 
z"/>
<path fill="#CAE0F9" opacity="1.000000" stroke="none" 
	d="
M260.532043,1.000000 
	C260.999451,5.696661 260.998871,10.393322 260.996338,15.559244 
	C255.309357,16.031664 249.624329,16.034822 243.469910,15.557951 
	C243.000351,10.385280 243.000183,5.692640 243.000000,1.000000 
	C248.688034,1.000000 254.376083,1.000000 260.532043,1.000000 
z"/>
<path fill="#BED9F8" opacity="1.000000" stroke="none" 
	d="
M240.597305,485.917175 
	C241.005753,490.669983 241.001907,495.368835 240.999023,500.533844 
	C240.555557,501.000000 240.111099,501.000000 239.064743,500.710999 
	C236.295029,500.288574 234.127228,500.155182 231.959427,500.021790 
	C229.494751,499.892761 227.030090,499.763702 224.324677,498.948547 
	C224.376282,493.582428 224.668594,488.902344 224.960922,484.222290 
	C230.035614,484.769257 235.110321,485.316254 240.597305,485.917175 
z"/>
<path fill="#BED9F8" opacity="1.000000" stroke="none" 
	d="
M242.666672,1.000000 
	C243.000183,5.692640 243.000351,10.385280 243.002350,15.545473 
	C237.978729,16.356323 232.953247,16.699619 227.464035,16.567535 
	C226.659805,11.443145 226.319336,6.794135 225.978851,2.145124 
	C228.013718,2.084570 230.048569,2.024015 232.954208,1.982131 
	C236.216660,1.667201 238.608322,1.333600 241.000000,1.000000 
	C241.444443,1.000000 241.888901,1.000000 242.666672,1.000000 
z"/>
<path fill="#CAE0F9" opacity="1.000000" stroke="none" 
	d="
M240.555832,1.000000 
	C238.608322,1.333600 236.216660,1.667201 233.390411,1.988441 
	C232.955841,1.976082 232.993439,1.488743 232.996719,1.244371 
	C235.370560,1.000000 237.741104,1.000000 240.555832,1.000000 
z"/>
<path fill="#CAE0F9" opacity="1.000000" stroke="none" 
	d="
M231.978149,500.265991 
	C234.127228,500.155182 236.295029,500.288574 238.731415,500.710999 
	C236.958328,501.000000 234.916672,501.000000 232.437500,501.000000 
	C232.000000,501.000000 231.996872,500.510193 231.978149,500.265991 
z"/>
<path fill="#282323" opacity="1.000000" stroke="none" 
	d="
M338.434113,113.521950 
	C296.439301,83.100243 251.066849,77.095306 201.552063,92.511520 
	C203.707001,97.859756 205.972229,102.604988 207.484406,107.579147 
	C208.327667,110.352928 208.894989,113.926865 207.837448,116.388824 
	C206.372055,119.800247 202.645905,118.658646 199.413162,118.248421 
	C172.618057,114.848137 147.473495,120.230408 123.819603,132.989044 
	C120.748184,134.645752 117.189133,136.653885 114.816895,133.589966 
	C113.159065,131.448761 112.725410,127.314293 113.462135,124.523407 
	C122.599426,89.908928 140.433228,60.364616 166.220978,35.584270 
	C172.205154,29.833887 176.064636,30.657946 179.175735,38.294689 
	C181.175781,43.204189 183.209396,48.100018 185.254883,53.067360 
	C194.422577,50.657978 203.245285,47.686497 212.309372,46.060200 
	C285.996765,32.839012 347.547913,54.184635 396.347839,111.313072 
	C397.535645,112.703598 398.673645,114.144981 399.734161,115.634338 
	C402.614349,119.679184 402.303802,122.459610 398.369171,125.477425 
	C390.976776,131.147263 383.519806,136.734695 376.021118,142.263443 
	C371.656342,145.481583 369.281677,144.647400 365.397675,140.575958 
	C356.693115,131.451218 347.631195,122.667374 338.434113,113.521950 
M270.609711,73.646339 
	C272.910522,73.958466 275.218994,74.223030 277.510956,74.590279 
	C295.360413,77.450447 311.973267,83.881454 328.372253,92.642212 
	C345.314758,102.266739 359.857880,114.747002 372.446594,130.066360 
	C377.403137,126.274933 382.178436,122.622154 386.932465,118.985657 
	C373.255737,100.281403 345.211884,78.231987 325.595001,70.323158 
	C319.722290,68.189507 313.738892,66.315414 307.999756,63.868488 
	C295.828125,58.679043 283.090790,56.195930 269.156006,54.961441 
	C247.781036,52.529392 226.710587,53.959248 205.209518,59.890991 
	C198.743271,61.983414 192.257721,64.018539 185.816711,66.185928 
	C180.421234,68.001480 178.142044,67.132004 175.975540,62.018909 
	C174.131958,57.667957 172.386368,53.275475 170.342712,48.278572 
	C150.836288,68.359970 136.782288,90.823166 127.849533,117.634804 
	C149.199677,108.286919 170.638626,104.189842 193.844070,105.449799 
	C191.815002,100.536430 190.090240,96.609100 188.568420,92.604645 
	C187.052689,88.616241 187.774063,85.403084 192.196060,83.758759 
	C197.158173,81.913589 202.108475,80.036636 207.873932,78.180283 
	C228.264511,72.776192 248.935974,70.901337 270.609711,73.646339 
z"/>
<path fill="#282224" opacity="1.000000" stroke="none" 
	d="
M336.990540,468.031555 
	C334.203308,461.477173 331.416107,454.922760 328.849243,448.886627 
	C316.517029,451.763763 304.582184,455.614075 292.352325,457.226196 
	C220.177261,466.740143 160.788284,443.439026 114.865112,386.656860 
	C111.080093,381.976837 111.614464,379.209930 116.552689,375.447479 
	C123.171822,370.404419 129.835388,365.419617 136.487671,360.420166 
	C142.505478,355.897552 144.673447,356.123779 149.274643,361.970795 
	C169.978409,388.280304 196.576294,405.522278 229.111298,413.299652 
	C256.647583,419.882080 283.926361,418.437988 310.770355,409.363983 
	C311.223511,409.210785 311.611328,408.864349 312.294098,408.446106 
	C310.158966,403.231140 307.997101,398.037262 305.903564,392.816040 
	C303.215576,386.112396 305.981232,381.981934 313.003967,383.035400 
	C341.134766,387.255005 367.137177,381.060730 391.916504,367.877350 
	C393.851959,366.847626 398.141785,366.726929 398.965271,367.879150 
	C400.524261,370.060364 401.415009,373.744843 400.748840,376.332428 
	C393.939087,402.783051 381.874420,426.661041 364.528717,447.800568 
	C360.943298,452.170135 357.060028,456.295288 352.893005,460.988464 
	C350.995911,462.779694 349.401917,464.008179 348.067261,465.472992 
	C344.928253,468.917938 341.380554,470.194489 336.990540,468.031555 
M261.853088,447.726379 
	C275.741943,447.623993 289.525421,446.619110 303.779907,442.994324 
	C311.616150,440.446320 319.380249,437.629364 327.328278,435.498352 
	C330.055786,434.767029 333.243317,435.751221 336.464783,436.596161 
	C338.832581,441.972321 341.200409,447.348511 343.742920,453.121338 
	C355.992096,440.834869 366.092682,427.519623 373.715729,412.537354 
	C378.186371,403.750793 381.404175,394.326782 385.539062,385.057037 
	C385.501770,384.840820 385.464478,384.624634 385.427246,384.408447 
	C385.266968,384.585205 385.106720,384.761993 384.188416,384.946014 
	C370.001068,390.815399 355.281067,394.572754 339.064362,395.995056 
	C332.932922,395.995056 326.801483,395.995056 320.173309,395.995056 
	C321.881012,400.310638 323.427216,404.274841 325.016937,408.221497 
	C327.122162,413.447968 326.050934,416.257538 320.661499,418.277313 
	C314.472015,420.596893 308.167267,422.608795 301.094788,424.785553 
	C286.269135,428.390991 271.191284,429.385895 255.100586,429.002228 
	C242.424820,426.910736 229.749069,424.819244 216.506424,422.309631 
	C203.709091,416.437408 190.911758,410.565155 177.722870,404.164978 
	C164.050003,395.200043 152.052658,384.322998 141.507401,371.556183 
	C136.335358,375.467957 131.655655,379.007355 126.748962,382.718414 
	C129.490173,385.881897 131.684357,388.584808 134.055740,391.122131 
	C146.255875,404.176208 159.589294,415.819916 176.032684,424.696533 
	C188.625122,431.922302 201.772934,437.787598 216.642441,441.406525 
	C231.108383,445.689240 245.903931,447.572754 261.853088,447.726379 
z"/>
<path fill="#252223" opacity="1.000000" stroke="none" 
	d="
M296.922974,172.958893 
	C296.972961,168.129547 296.970215,163.298935 297.087494,158.471222 
	C297.209839,153.433624 299.401215,151.184555 304.486969,151.179214 
	C343.145172,151.138565 381.803650,151.115524 420.461304,151.269714 
	C422.509003,151.277863 425.062592,152.434143 426.514252,153.908813 
	C439.709778,167.313446 452.771759,180.851852 465.686798,194.526855 
	C467.091400,196.014069 467.993286,198.608124 467.998871,200.691788 
	C468.125916,248.181137 468.103210,295.670898 468.084381,343.160583 
	C468.082184,348.722595 466.628052,350.206848 460.917694,350.210266 
	C408.928986,350.241302 356.940277,350.239655 304.951569,350.213806 
	C298.851562,350.210754 297.084137,348.319824 297.079346,342.000610 
	C297.049103,302.009552 297.041412,262.018494 297.067749,221.217194 
	C300.248230,213.622177 303.464844,206.871979 306.504425,200.042969 
	C309.579224,193.134659 308.664062,186.801086 303.513245,181.093414 
	C301.178589,178.506363 299.111450,175.677856 296.922974,172.958893 
M339.898834,338.594513 
	C348.936493,338.494598 357.974152,338.394684 367.895477,338.598633 
	C377.266693,338.498962 386.637939,338.399292 396.892853,338.604736 
	C407.272766,338.509705 417.652710,338.414673 428.914551,338.620697 
	C437.848877,338.620697 446.783234,338.620697 455.821503,338.620697 
	C455.821503,294.112427 455.821503,250.145630 455.821503,205.941483 
	C446.590759,205.941483 437.796814,205.941483 428.108032,205.820404 
	C415.047607,206.490143 415.730133,203.791306 415.819946,193.347565 
	C415.905090,183.447723 415.838257,173.546570 415.838257,163.284698 
	C411.856201,163.284698 408.427765,163.284698 404.093750,163.129562 
	C400.723755,163.182877 397.353760,163.236206 393.059814,163.143417 
	C383.705231,163.193649 374.350616,163.243866 364.070099,163.142273 
	C355.378418,163.193680 346.686768,163.245102 337.069305,163.144897 
	C327.870819,163.144897 318.672333,163.144897 309.193146,163.144897 
	C309.193146,173.233002 309.193146,182.639587 309.049011,192.499390 
	C309.049011,192.499390 309.195343,192.951889 309.048401,193.873932 
	C309.134644,197.910568 309.220886,201.947220 309.124054,206.635483 
	C309.142517,207.083176 309.161011,207.530853 309.058807,208.855286 
	C309.091156,210.925613 309.123505,212.995941 308.956818,215.961014 
	C309.004486,218.777756 309.088898,221.594452 309.093994,224.411270 
	C309.135437,247.279144 309.162018,270.147064 309.133453,293.856689 
	C309.138184,295.266602 309.142944,296.676514 308.952301,298.977966 
	C308.952301,311.973938 308.952301,324.969879 308.952301,338.292480 
	C319.584686,338.292480 329.299866,338.292480 339.898834,338.594513 
M442.163696,193.809021 
	C443.733093,193.720856 445.302490,193.632675 446.871887,193.544510 
	C447.060211,193.164276 447.248535,192.784042 447.436859,192.403809 
	C440.608429,186.587845 433.779999,180.771881 428.082397,175.919098 
	C428.082397,180.234268 428.082397,186.757309 428.082397,193.810455 
	C432.687988,193.810455 436.965454,193.810455 442.163696,193.809021 
z"/>
<path fill="#252223" opacity="1.000000" stroke="none" 
	d="
M39.436539,350.277893 
	C37.252922,346.146637 35.542488,341.976715 33.767242,336.945160 
	C33.708664,307.979248 33.735744,279.874969 33.715355,251.770706 
	C33.694359,222.837570 33.627083,193.904465 33.580059,164.971344 
	C35.237408,160.514145 36.894760,156.056946 38.760635,151.329086 
	C77.424049,151.091217 115.879097,151.181000 154.333603,151.075073 
	C158.512390,151.063568 161.512833,152.263962 164.377380,155.302750 
	C176.588242,168.256439 189.109848,180.918549 201.231323,193.953705 
	C203.147202,196.014008 204.547119,199.435669 204.568817,202.240402 
	C204.803177,232.537476 204.754333,262.837189 204.638977,293.135651 
	C204.629257,295.685089 203.965546,298.399811 202.938065,300.745331 
	C200.150818,307.108185 197.004318,313.313660 193.582382,319.592468 
	C193.054825,317.786987 192.850479,315.970642 192.849457,314.154144 
	C192.830490,280.052032 192.835632,245.949905 192.835739,211.847778 
	C192.835739,209.943146 192.835739,208.038513 192.835739,205.878860 
	C182.659409,205.878860 173.363312,205.878860 163.746216,205.739838 
	C159.667328,204.359634 155.909424,203.118439 152.104721,201.417755 
	C152.057922,188.444580 152.057922,175.930939 152.057922,163.281601 
	C140.793091,163.281601 130.384659,163.281601 119.514275,163.211670 
	C108.367088,163.191864 97.681847,163.242020 86.533661,163.216187 
	C78.710442,163.190918 71.350166,163.241638 63.528145,163.216431 
	C57.292019,163.140488 51.517639,163.140488 45.493279,163.140488 
	C45.384453,165.130478 45.234676,166.594879 45.234352,168.059311 
	C45.222412,221.705460 45.221249,275.351624 45.236565,328.997772 
	C45.237133,330.993195 44.999474,333.138550 45.645527,334.936371 
	C46.159786,336.367371 47.806213,338.340912 49.034676,338.403168 
	C54.660477,338.688232 60.316071,338.385284 66.410385,338.450104 
	C76.559273,338.504333 86.258743,338.401947 96.407845,338.456909 
	C113.570625,338.519806 130.283783,338.425323 147.439545,338.484741 
	C160.138474,338.736053 172.394775,338.833405 184.651062,338.930725 
	C183.175247,342.560333 181.699417,346.189972 180.052963,350.239258 
	C133.580719,350.239258 86.745224,350.239258 39.436539,350.277893 
M183.336960,192.312286 
	C176.747101,186.275940 170.157257,180.239594 164.226486,174.806976 
	C164.226486,180.302780 164.226486,186.849777 164.226486,194.169708 
	C170.935349,193.766022 177.233170,193.387054 183.336960,192.312286 
z"/>
<path fill="#38A298" opacity="1.000000" stroke="none" 
	d="
M164.067215,205.878860 
	C173.363312,205.878860 182.659409,205.878860 192.835739,205.878860 
	C192.835739,208.038513 192.835739,209.943146 192.835739,211.847778 
	C192.835632,245.949905 192.830490,280.052032 192.849457,314.154144 
	C192.850479,315.970642 193.054825,317.786987 193.451904,319.948181 
	C190.843414,326.345825 187.947525,332.398682 184.851349,338.691162 
	C172.394775,338.833405 160.138474,338.736053 147.503143,338.206177 
	C147.419418,336.845245 147.714706,335.916840 148.373932,335.026520 
	C150.824158,335.702332 152.910446,336.340027 155.414413,336.987152 
	C157.224228,336.995026 158.616348,336.993439 160.382172,336.994263 
	C161.850143,336.346191 162.944427,335.695709 164.400726,335.038025 
	C165.845444,334.692719 166.928131,334.354553 168.350769,333.975159 
	C169.805130,332.631073 170.919540,331.328186 172.340057,329.850586 
	C173.433182,327.452301 174.220169,325.228790 175.020294,322.575623 
	C174.718765,319.734863 174.404099,317.323669 174.055603,314.528412 
	C172.738617,310.048920 171.455460,305.953491 170.102631,301.479523 
	C169.980255,300.076569 169.927582,299.052155 170.252533,297.961609 
	C170.753677,295.311768 170.980515,292.728210 170.983337,290.144379 
	C170.998016,276.696655 170.955658,263.248840 171.064911,249.534027 
	C171.519501,248.546051 171.842331,247.825119 172.461273,246.884521 
	C173.155609,245.947784 173.668472,245.270691 173.934647,244.507538 
	C177.340240,234.743546 172.590302,226.109665 170.023468,216.791779 
	C167.984375,212.907532 166.025787,209.393188 164.067215,205.878860 
z"/>
<path fill="#AB6DA4" opacity="1.000000" stroke="none" 
	d="
M296.624817,172.861740 
	C299.111450,175.677856 301.178589,178.506363 303.513245,181.093414 
	C308.664062,186.801086 309.579224,193.134659 306.504425,200.042969 
	C303.464844,206.871979 300.248230,213.622177 296.996704,220.760468 
	C294.452301,225.940369 292.020416,230.766739 288.922577,235.793991 
	C283.080719,234.138672 277.904785,232.282455 272.728882,230.426254 
	C278.829102,217.352249 284.955139,204.290237 291.017609,191.198746 
	C293.697174,185.412384 297.645569,179.835602 294.552521,172.918045 
	C295.143921,172.866898 295.735291,172.815750 296.624817,172.861740 
z"/>
<path fill="#F3F8FE" opacity="1.000000" stroke="none" 
	d="
M336.926819,468.384735 
	C341.380554,470.194489 344.928253,468.917938 348.067261,465.472992 
	C349.401917,464.008179 350.995911,462.779694 352.771088,461.304626 
	C354.773987,461.149414 356.499115,461.298523 358.177032,461.081787 
	C361.338989,460.673248 362.775238,461.257111 363.161682,465.088257 
	C363.907410,472.480988 359.083160,475.844513 353.961823,478.328979 
	C345.779480,482.298340 337.126190,485.296844 328.336792,488.426147 
	C328.287567,486.732086 328.808777,485.318420 328.813232,483.903107 
	C328.824341,480.361908 330.459259,476.282837 325.995117,473.994293 
	C329.617767,472.242157 333.240448,470.490051 336.926819,468.384735 
z"/>
<path fill="#F3F8FE" opacity="1.000000" stroke="none" 
	d="
M323.000000,11.999277 
	C332.526367,15.592769 342.253784,18.743513 351.504395,22.944277 
	C357.136597,25.501884 358.493286,30.095348 356.833527,35.826176 
	C356.560059,36.770432 354.604340,38.068264 353.746704,37.863022 
	C348.987183,36.723999 344.272522,35.327007 339.646393,33.719379 
	C334.194214,31.824701 328.848053,29.624939 323.237244,26.864880 
	C323.012390,21.447962 323.006195,16.723619 323.000000,11.999277 
z"/>
<path fill="#E3EEFC" opacity="1.000000" stroke="none" 
	d="
M282.414307,498.984009 
	C281.990875,494.296478 281.994690,489.619965 281.996368,484.479065 
	C289.380432,482.673676 296.766663,481.332703 304.748779,480.330383 
	C305.560333,485.441589 305.776001,490.214142 305.991699,494.986694 
	C298.274994,496.322815 290.558258,497.658905 282.414307,498.984009 
z"/>
<path fill="#228BA8" opacity="1.000000" stroke="none" 
	d="
M223.996689,371.998962 
	C218.394485,383.866272 204.339996,385.578278 196.336533,375.375763 
	C194.008774,372.408447 191.648315,369.466797 189.944031,367.320770 
	C194.837601,366.560822 199.987457,365.761047 205.701065,365.159180 
	C212.175446,367.571075 218.086060,369.785034 223.996689,371.998962 
z"/>
<path fill="#7B78A6" opacity="1.000000" stroke="none" 
	d="
M271.972168,271.324310 
	C269.225708,277.439545 266.479279,283.554779 263.104797,289.725281 
	C257.073517,288.191376 251.670303,286.602203 246.267090,285.013031 
	C249.072418,279.203400 251.877747,273.393768 255.272736,267.299438 
	C261.232330,268.451263 266.602234,269.887787 271.972168,271.324310 
z"/>
<path fill="#6B7BA5" opacity="1.000000" stroke="none" 
	d="
M246.058167,285.317505 
	C251.670303,286.602203 257.073517,288.191376 262.829285,289.931824 
	C260.335083,296.294556 257.488312,302.505981 254.179199,308.584595 
	C248.446167,306.624451 243.175507,304.797119 237.904846,302.969788 
	C240.552994,297.187225 243.201126,291.404602 246.058167,285.317505 
z"/>
<path fill="#EDF4FD" opacity="1.000000" stroke="none" 
	d="
M322.659088,11.849544 
	C323.006195,16.723619 323.012390,21.447962 323.008057,26.591534 
	C315.830963,25.201246 308.664368,23.391729 301.248688,20.840422 
	C300.664703,15.401953 300.329803,10.705272 299.994934,6.008590 
	C307.436005,7.905663 314.877075,9.802735 322.659088,11.849544 
z"/>
<path fill="#8F73A5" opacity="1.000000" stroke="none" 
	d="
M272.240814,271.182434 
	C266.602234,269.887787 261.232330,268.451263 255.474899,267.008331 
	C257.800751,261.115112 260.514130,255.228317 263.902832,249.155853 
	C269.718506,250.978455 274.858887,252.986740 279.999268,254.995026 
	C277.502655,260.343536 275.006042,265.692047 272.240814,271.182434 
z"/>
<path fill="#EDF4FD" opacity="1.000000" stroke="none" 
	d="
M306.379395,494.947632 
	C305.776001,490.214142 305.560333,485.441589 305.171570,480.324310 
	C311.732056,477.990936 318.465668,476.002258 325.597198,474.003937 
	C330.459259,476.282837 328.824341,480.361908 328.813232,483.903107 
	C328.808777,485.318420 328.287567,486.732086 327.998962,488.570190 
	C320.919922,490.965454 313.843506,492.936981 306.379395,494.947632 
z"/>
<path fill="#9B71A5" opacity="1.000000" stroke="none" 
	d="
M280.259644,254.763123 
	C274.858887,252.986740 269.718506,250.978455 264.168823,248.937805 
	C266.576355,242.915161 269.393219,236.924881 272.469482,230.680420 
	C277.904785,232.282455 283.080719,234.138672 288.654480,236.006973 
	C286.208191,242.189789 283.364105,248.360504 280.259644,254.763123 
z"/>
<path fill="#4B81A6" opacity="1.000000" stroke="none" 
	d="
M246.690338,325.002838 
	C244.082993,330.555756 241.475662,336.108673 238.211823,341.828796 
	C232.234055,340.282990 226.912766,338.569977 221.591492,336.856964 
	C224.168381,331.315216 226.745285,325.773468 229.863708,320.342957 
	C235.833618,321.970398 241.261993,323.486603 246.690338,325.002838 
z"/>
<path fill="#567FA6" opacity="1.000000" stroke="none" 
	d="
M246.877991,324.686462 
	C241.261993,323.486603 235.833618,321.970398 230.161423,320.150635 
	C232.388123,314.349152 234.858627,308.851257 237.617004,303.161560 
	C243.175507,304.797119 248.446167,306.624451 253.885071,308.778809 
	C251.724106,314.193939 249.394867,319.282013 246.877991,324.686462 
z"/>
<path fill="#3985A7" opacity="1.000000" stroke="none" 
	d="
M221.360062,337.101379 
	C226.912766,338.569977 232.234055,340.282990 237.957794,342.055847 
	C235.795654,347.659454 233.231049,353.203247 230.146484,358.645508 
	C224.164322,357.033813 218.702118,355.523651 213.239914,354.013489 
	C215.869492,348.457581 218.499069,342.901703 221.360062,337.101379 
z"/>
<path fill="#E3EEFC" opacity="1.000000" stroke="none" 
	d="
M299.587891,5.996359 
	C300.329803,10.705272 300.664703,15.401953 300.997009,20.564701 
	C294.602844,20.027096 288.211212,19.023424 281.404236,17.998339 
	C280.991943,13.299715 280.995056,8.622506 280.994873,3.481113 
	C287.054688,4.005995 293.117767,4.995061 299.587891,5.996359 
z"/>
<path fill="#2A86A6" opacity="1.000000" stroke="none" 
	d="
M213.081589,354.330139 
	C218.702118,355.523651 224.164322,357.033813 229.851166,358.837036 
	C228.214523,363.260162 226.353241,367.390259 224.244324,371.759644 
	C218.086060,369.785034 212.175446,367.571075 206.067627,365.037231 
	C208.221375,361.360474 210.572311,358.003601 213.081589,354.330139 
z"/>
<path fill="#B2D2F6" opacity="1.000000" stroke="none" 
	d="
M225.571991,2.159067 
	C226.319336,6.794135 226.659805,11.443145 227.002960,16.556982 
	C221.970917,17.709360 216.936203,18.396912 211.460876,19.084511 
	C210.710831,14.643134 210.401382,10.201713 210.040390,5.338482 
	C215.047607,4.002119 220.106354,3.087564 225.571991,2.159067 
z"/>
<path fill="#B2D2F6" opacity="1.000000" stroke="none" 
	d="
M224.526917,484.156677 
	C224.668594,488.902344 224.376282,493.582428 224.025085,498.687836 
	C219.169052,498.596863 214.371902,498.080505 209.286346,497.293701 
	C208.996368,492.360901 208.994797,487.698578 208.985458,482.583069 
	C214.016113,482.783630 219.054504,483.437317 224.526917,484.156677 
z"/>
<path fill="#FEFEFF" opacity="1.000000" stroke="none" 
	d="
M33.274651,165.109924 
	C33.627083,193.904465 33.694359,222.837570 33.715355,251.770706 
	C33.735744,279.874969 33.708664,307.979248 33.641243,336.556030 
	C32.370159,334.774597 30.843630,332.632751 29.999937,330.249146 
	C22.550104,309.202118 18.233965,287.588104 16.753502,265.230255 
	C14.488733,231.027817 19.938082,198.208801 32.055279,166.329849 
	C32.213448,165.913712 32.658237,165.606537 33.274651,165.109924 
z"/>
<path fill="#FCB456" opacity="1.000000" stroke="none" 
	d="
M207.063934,78.173515 
	C202.108475,80.036636 197.158173,81.913589 192.196060,83.758759 
	C187.774063,85.403084 187.052689,88.616241 188.568420,92.604645 
	C190.090240,96.609100 191.815002,100.536430 193.844070,105.449799 
	C170.638626,104.189842 149.199677,108.286919 127.849533,117.634804 
	C136.782288,90.823166 150.836288,68.359970 170.342712,48.278572 
	C172.386368,53.275475 174.131958,57.667957 175.975540,62.018909 
	C178.142044,67.132004 180.421234,68.001480 185.816711,66.185928 
	C192.257721,64.018539 198.743271,61.983414 205.654694,60.335903 
	C206.421219,66.578384 206.742569,72.375946 207.063934,78.173515 
z"/>
<path fill="#FB9E4F" opacity="1.000000" stroke="none" 
	d="
M326.037903,70.858238 
	C345.211884,78.231987 373.255737,100.281403 386.932465,118.985657 
	C382.178436,122.622154 377.403137,126.274933 372.446594,130.066360 
	C359.857880,114.747002 345.314758,102.266739 328.221100,91.980087 
	C331.112549,84.128593 331.843048,77.168861 326.037903,70.858238 
z"/>
<path fill="#FCAC54" opacity="1.000000" stroke="none" 
	d="
M207.468933,78.176895 
	C206.742569,72.375946 206.421219,66.578384 206.049500,60.361176 
	C226.710587,53.959248 247.781036,52.529392 269.588898,55.472034 
	C269.995453,61.735249 269.969116,67.487869 269.942810,73.240486 
	C248.935974,70.901337 228.264511,72.776192 207.468933,78.176895 
z"/>
<path fill="#FCA651" opacity="1.000000" stroke="none" 
	d="
M270.276245,73.443413 
	C269.969116,67.487869 269.995453,61.735249 270.008484,55.572540 
	C283.090790,56.195930 295.828125,58.679043 307.999756,63.868488 
	C313.738892,66.315414 319.722290,68.189507 325.816467,70.590698 
	C331.843048,77.168861 331.112549,84.128593 328.015961,91.712036 
	C311.973267,83.881454 295.360413,77.450447 277.510956,74.590279 
	C275.218994,74.223030 272.910522,73.958466 270.276245,73.443413 
z"/>
<path fill="#D23E5A" opacity="1.000000" stroke="none" 
	d="
M339.996399,396.090973 
	C355.281067,394.572754 370.001068,390.815399 384.626831,385.005371 
	C385.065277,385.064758 385.185516,385.189484 385.185516,385.189484 
	C381.404175,394.326782 378.186371,403.750793 373.715729,412.537354 
	C366.092682,427.519623 355.992096,440.834869 343.742920,453.121338 
	C341.200409,447.348511 338.832581,441.972321 336.763245,436.288635 
	C338.622009,435.853455 340.182281,435.725800 342.000000,435.577087 
	C342.000000,428.525848 342.260651,422.057312 341.927246,415.619537 
	C341.589264,409.094177 340.664276,402.599243 339.996399,396.090973 
z"/>
<path fill="#E15777" opacity="1.000000" stroke="none" 
	d="
M175.554977,424.148590 
	C159.589294,415.819916 146.255875,404.176208 134.055740,391.122131 
	C131.684357,388.584808 129.490173,385.881897 126.748962,382.718414 
	C131.655655,379.007355 136.335358,375.467957 141.507401,371.556183 
	C152.052658,384.322998 164.050003,395.200043 177.913864,404.812561 
	C178.763794,406.356812 179.855942,407.185852 180.008255,408.161591 
	C180.751343,412.921295 181.433075,417.715881 181.541870,422.511627 
	C181.553207,423.011749 177.644745,423.600800 175.554977,424.148590 
z"/>
<path fill="#D5435F" opacity="1.000000" stroke="none" 
	d="
M339.530396,396.043030 
	C340.664276,402.599243 341.589264,409.094177 341.927246,415.619537 
	C342.260651,422.057312 342.000000,428.525848 342.000000,435.577087 
	C340.182281,435.725800 338.622009,435.853455 336.641174,435.966400 
	C333.243317,435.751221 330.055786,434.767029 327.328278,435.498352 
	C319.380249,437.629364 311.616150,440.446320 303.388916,442.498108 
	C302.636139,436.252686 302.274353,430.503540 301.912598,424.754364 
	C308.167267,422.608795 314.472015,420.596893 320.661499,418.277313 
	C326.050934,416.257538 327.122162,413.447968 325.016937,408.221497 
	C323.427216,404.274841 321.881012,400.310638 320.173309,395.995056 
	C326.801483,395.995056 332.932922,395.995056 339.530396,396.043030 
z"/>
<path fill="#DC4E6C" opacity="1.000000" stroke="none" 
	d="
M217.073303,422.727753 
	C229.749069,424.819244 242.424820,426.910736 255.597595,429.426758 
	C262.282654,433.238831 260.925629,439.142517 260.996613,444.566925 
	C261.009369,445.542908 260.979126,446.519440 260.968781,447.495728 
	C245.903931,447.572754 231.108383,445.689240 216.373444,440.792908 
	C216.427383,434.362122 216.750351,428.544922 217.073303,422.727753 
z"/>
<path fill="#D84865" opacity="1.000000" stroke="none" 
	d="
M261.410950,447.611053 
	C260.979126,446.519440 261.009369,445.542908 260.996613,444.566925 
	C260.925629,439.142517 262.282654,433.238831 256.044189,429.496887 
	C271.191284,429.385895 286.269135,428.390991 301.503693,424.769958 
	C302.274353,430.503540 302.636139,436.252686 302.996399,442.462769 
	C289.525421,446.619110 275.741943,447.623993 261.410950,447.611053 
z"/>
<path fill="#DF5372" opacity="1.000000" stroke="none" 
	d="
M216.789856,422.518677 
	C216.750351,428.544922 216.427383,434.362122 216.051712,440.595398 
	C201.772934,437.787598 188.625122,431.922302 175.793823,424.422546 
	C177.644745,423.600800 181.553207,423.011749 181.541870,422.511627 
	C181.433075,417.715881 180.751343,412.921295 180.008255,408.161591 
	C179.855942,407.185852 178.763794,406.356812 178.109650,405.076538 
	C190.911758,410.565155 203.709091,416.437408 216.789856,422.518677 
z"/>
<path fill="#D23E5A" opacity="1.000000" stroke="none" 
	d="
M385.005859,385.001770 
	C385.106720,384.761993 385.266968,384.585205 385.427246,384.408447 
	C385.464478,384.624634 385.501770,384.840820 385.362305,385.123260 
	C385.185516,385.189484 385.065277,385.064758 385.005859,385.001770 
z"/>
<path fill="#FEFEFE" opacity="1.000000" stroke="none" 
	d="
M309.147705,298.086426 
	C309.142944,296.676514 309.138184,295.266602 309.384491,293.170288 
	C310.817383,285.701050 315.453552,281.939453 321.287048,279.293884 
	C333.497986,273.756073 345.732544,268.270447 358.298859,262.684998 
	C364.357147,260.045319 370.074036,257.484039 376.599091,254.560684 
	C370.528931,251.981354 365.343628,249.778030 359.882935,247.367096 
	C353.402802,244.499420 347.198029,241.839371 340.635803,239.097656 
	C336.056732,236.949936 331.708557,235.103775 327.645020,232.763367 
	C322.316040,229.694061 317.211548,226.234940 312.001770,222.972290 
	C311.993042,223.001083 312.052826,223.007980 311.973938,222.712555 
	C311.623169,222.124802 311.351318,221.832474 311.051697,221.192795 
	C310.401245,218.919052 309.778534,216.992661 309.155884,215.066269 
	C309.123505,212.995941 309.091156,210.925613 309.381836,208.293396 
	C309.892120,207.184433 310.079437,206.637375 310.503754,205.860168 
	C315.527161,197.738312 323.168488,194.185593 330.715607,196.555923 
	C333.857178,197.542572 336.865356,198.953796 340.156616,200.433380 
	C348.923615,204.699966 357.468170,208.705154 366.330505,212.892715 
	C375.768158,217.338593 384.888031,221.602097 394.288788,226.081970 
	C397.714569,227.770493 400.859528,229.242645 404.298431,230.914917 
	C412.810028,235.064850 419.488953,240.360092 421.078247,250.496338 
	C421.037384,256.386688 421.990143,262.350250 417.965698,266.591553 
	C413.846924,270.932281 408.699951,274.297424 403.652100,278.167114 
	C396.539276,281.520386 389.777466,284.796173 382.655518,288.097412 
	C374.862061,291.745575 367.428680,295.368317 359.633850,299.020782 
	C351.155273,302.981598 343.038147,306.912659 334.536102,310.908630 
	C325.471741,315.105835 318.243439,312.772400 311.914429,305.655731 
	C310.928162,302.900238 310.037903,300.493347 309.147705,298.086426 
z"/>
<path fill="#38A69A" opacity="1.000000" stroke="none" 
	d="
M429.002838,205.941483 
	C437.796814,205.941483 446.590759,205.941483 455.821503,205.941483 
	C455.821503,250.145630 455.821503,294.112427 455.821503,338.620697 
	C446.783234,338.620697 437.848877,338.620697 428.549316,338.143677 
	C428.789398,334.444946 429.903412,331.225861 429.919983,328.001099 
	C430.060150,300.739532 430.105225,273.476379 429.955139,246.214951 
	C429.881256,232.789124 429.335205,219.365891 429.002838,205.941483 
z"/>
<path fill="#3DAD9D" opacity="1.000000" stroke="none" 
	d="
M428.555420,205.880951 
	C429.335205,219.365891 429.881256,232.789124 429.955139,246.214951 
	C430.105225,273.476379 430.060150,300.739532 429.919983,328.001099 
	C429.903412,331.225861 428.789398,334.444946 428.108337,337.993164 
	C417.652710,338.414673 407.272766,338.509705 396.463928,338.111572 
	C396.689941,335.464111 397.865265,333.320404 397.909119,331.153778 
	C398.093628,322.044556 397.939941,312.928467 397.965210,303.490723 
	C399.691650,301.783203 401.362915,300.399841 403.409668,299.010071 
	C409.527893,295.677490 415.270721,292.351379 421.319061,288.864014 
	C425.352448,284.239166 427.991272,279.141998 426.885529,273.308594 
	C425.400360,265.473450 423.097748,257.793182 421.146057,250.046432 
	C419.488953,240.360092 412.810028,235.064850 404.296844,230.466797 
	C404.000854,210.078232 403.965881,190.337738 404.044128,170.597702 
	C404.053802,168.158813 404.666229,165.722321 404.999329,163.284698 
	C408.427765,163.284698 411.856201,163.284698 415.838257,163.284698 
	C415.838257,173.546570 415.905090,183.447723 415.819946,193.347565 
	C415.730133,203.791306 415.047607,206.490143 428.555420,205.880951 
z"/>
<path fill="#43B39E" opacity="1.000000" stroke="none" 
	d="
M394.007935,225.865616 
	C384.888031,221.602097 375.768158,217.338593 366.327209,212.445221 
	C365.669464,195.641586 365.332733,179.467834 364.996033,163.294083 
	C374.350616,163.243866 383.705231,163.193649 393.526306,163.663483 
	C393.997833,184.744232 394.002869,205.304932 394.007935,225.865616 
z"/>
<path fill="#4DBC9E" opacity="1.000000" stroke="none" 
	d="
M357.957428,262.763367 
	C345.732544,268.270447 333.497986,273.756073 321.287048,279.293884 
	C315.453552,281.939453 310.817383,285.701050 309.414307,292.749390 
	C309.162018,270.147064 309.135437,247.279144 309.093994,224.411270 
	C309.088898,221.594452 309.004486,218.777756 309.056335,215.513641 
	C309.778534,216.992661 310.401245,218.919052 311.117584,221.497742 
	C311.491760,222.436020 311.772278,222.722000 312.052826,223.007980 
	C312.052826,223.007980 311.993042,223.001083 312.000549,223.380951 
	C313.296783,228.187531 314.515320,232.636185 315.891205,237.035614 
	C317.799744,243.138184 321.755768,247.256119 328.211121,249.309662 
	C334.627289,252.352402 340.820618,255.126114 347.332153,258.072876 
	C351.086060,259.751740 354.521759,261.257568 357.957428,262.763367 
z"/>
<path fill="#47B89E" opacity="1.000000" stroke="none" 
	d="
M364.533051,163.218170 
	C365.332733,179.467834 365.669464,195.641586 366.009460,212.262848 
	C357.468170,208.705154 348.923615,204.699966 340.177063,199.952286 
	C339.273895,187.240952 341.831329,175.092484 337.995087,163.296509 
	C346.686768,163.245102 355.378418,163.193680 364.533051,163.218170 
z"/>
<path fill="#4CBD9F" opacity="1.000000" stroke="none" 
	d="
M337.532196,163.220703 
	C341.831329,175.092484 339.273895,187.240952 339.954651,199.690872 
	C336.865356,198.953796 333.857178,197.542572 330.715607,196.555923 
	C323.168488,194.185593 315.527161,197.738312 310.263977,205.831909 
	C309.787231,206.033768 309.307159,205.983856 309.307129,205.983856 
	C309.220886,201.947220 309.134644,197.910568 309.260895,193.331253 
	C309.659180,192.456360 309.565765,192.208908 309.193146,192.046188 
	C309.193146,182.639587 309.193146,173.233002 309.193146,163.144897 
	C318.672333,163.144897 327.870819,163.144897 337.532196,163.220703 
z"/>
<path fill="#43B39E" opacity="1.000000" stroke="none" 
	d="
M397.910034,303.814880 
	C397.939941,312.928467 398.093628,322.044556 397.909119,331.153778 
	C397.865265,333.320404 396.689941,335.464111 396.022095,337.958984 
	C386.637939,338.399292 377.266693,338.498962 367.451050,338.075745 
	C367.336945,330.699097 367.667297,323.845337 368.206543,316.719849 
	C372.272705,314.613251 376.130005,312.778320 380.316589,310.828918 
	C386.400604,308.414581 392.155334,306.114716 397.910034,303.814880 
z"/>
<path fill="#3EAC9B" opacity="1.000000" stroke="none" 
	d="
M394.288788,226.081970 
	C394.002869,205.304932 393.997833,184.744232 393.988281,163.736542 
	C397.353760,163.236206 400.723755,163.182877 404.546539,163.207123 
	C404.666229,165.722321 404.053802,168.158813 404.044128,170.597702 
	C403.965881,190.337738 404.000854,210.078232 404.002869,230.266693 
	C400.859528,229.242645 397.714569,227.770493 394.288788,226.081970 
z"/>
<path fill="#47B89E" opacity="1.000000" stroke="none" 
	d="
M367.997650,316.991577 
	C367.667297,323.845337 367.336945,330.699097 367.009216,337.923828 
	C357.974152,338.394684 348.936493,338.494598 339.452576,338.089844 
	C339.337830,335.082306 339.669281,332.579437 340.309875,329.905457 
	C346.132843,326.853455 351.646667,323.972595 357.522400,321.067169 
	C361.255432,319.692291 364.626526,318.341919 367.997650,316.991577 
z"/>
<path fill="#4DBC9E" opacity="1.000000" stroke="none" 
	d="
M340.000763,330.076599 
	C339.669281,332.579437 339.337830,335.082306 339.010681,337.938812 
	C329.299866,338.292480 319.584686,338.292480 308.952301,338.292480 
	C308.952301,324.969879 308.952301,311.973938 309.049988,298.532196 
	C310.037903,300.493347 310.928162,302.900238 311.918579,306.048889 
	C313.076630,310.607361 314.000946,314.467224 315.216919,318.232910 
	C319.189423,330.534943 327.764374,334.593231 340.000763,330.076599 
z"/>
<path fill="#44B098" opacity="1.000000" stroke="none" 
	d="
M441.703308,193.809738 
	C436.965454,193.810455 432.687988,193.810455 428.082397,193.810455 
	C428.082397,186.757309 428.082397,180.234268 428.082397,175.919098 
	C433.779999,180.771881 440.608429,186.587845 447.436859,192.403809 
	C447.248535,192.784042 447.060211,193.164276 446.871887,193.544510 
	C445.302490,193.632675 443.733093,193.720856 441.703308,193.809738 
z"/>
<path fill="#3EAC9B" opacity="1.000000" stroke="none" 
	d="
M309.215607,206.309662 
	C309.307159,205.983856 309.787231,206.033768 310.026978,206.062042 
	C310.079437,206.637375 309.892120,207.184433 309.442169,207.855011 
	C309.161011,207.530853 309.142517,207.083176 309.215607,206.309662 
z"/>
<path fill="#3EAC9B" opacity="1.000000" stroke="none" 
	d="
M309.121094,192.272797 
	C309.565765,192.208908 309.659180,192.456360 309.334351,192.870239 
	C309.195343,192.951889 309.049011,192.499390 309.121094,192.272797 
z"/>
<path fill="#FEFEFE" opacity="1.000000" stroke="none" 
	d="
M169.874908,298.027771 
	C169.927582,299.052155 169.980255,300.076569 170.028809,301.896790 
	C168.947617,306.083344 167.870560,309.474030 166.519730,313.026123 
	C165.041946,314.387634 163.837936,315.587769 162.302917,316.867157 
	C160.312286,317.680359 158.652649,318.414337 156.551651,319.097595 
	C152.740601,318.721222 149.370926,318.395569 145.706055,317.875610 
	C133.988449,312.326782 122.566025,306.972290 110.905327,301.373718 
	C101.122940,296.723785 91.578819,292.317871 81.814819,287.635681 
	C75.423798,284.200531 69.252670,281.041656 62.927555,277.561707 
	C55.388794,261.381378 56.226322,252.794327 66.455154,242.162262 
	C73.828568,238.308441 80.919937,234.677979 88.372086,231.006958 
	C100.270737,225.387543 111.808617,219.808685 123.694656,214.169220 
	C133.412384,210.031525 142.781952,205.954391 152.151520,201.877258 
	C155.909424,203.118439 159.667328,204.359634 163.746216,205.739838 
	C166.025787,209.393188 167.984375,212.907532 169.961914,217.200989 
	C170.299835,225.942398 166.929993,231.659256 159.666016,235.059784 
	C157.742065,235.960449 155.896027,237.027557 153.651871,238.051926 
	C147.528687,240.751877 141.767853,243.418106 135.646973,246.109253 
	C129.818481,248.638229 124.350044,251.142273 118.521881,253.746857 
	C113.254982,255.998932 108.347816,258.150452 102.565567,260.685638 
	C111.194641,264.367401 119.022331,267.707214 127.092041,271.304077 
	C136.844330,275.823578 146.292633,280.232269 155.886368,284.297791 
	C162.442215,287.075928 167.516251,291.100769 169.874908,298.027771 
z"/>
<path fill="#4DBE9F" opacity="1.000000" stroke="none" 
	d="
M66.173119,242.385590 
	C56.226322,252.794327 55.388794,261.381378 62.651756,277.766113 
	C63.000847,280.192078 63.471756,282.092560 63.957020,284.364655 
	C64.640991,286.497894 65.310608,288.259460 66.015244,290.362579 
	C66.768478,292.107941 67.486710,293.511749 67.874756,295.190155 
	C67.363052,297.409363 67.077042,299.350830 67.017014,301.299194 
	C66.637154,313.629761 66.307312,325.961884 65.960968,338.293488 
	C60.316071,338.385284 54.660477,338.688232 49.034676,338.403168 
	C47.806213,338.340912 46.159786,336.367371 45.645527,334.936371 
	C44.999474,333.138550 45.237133,330.993195 45.236565,328.997772 
	C45.221249,275.351624 45.222412,221.705460 45.234352,168.059311 
	C45.234676,166.594879 45.384453,165.130478 45.493279,163.140488 
	C51.517639,163.140488 57.292019,163.140488 63.532921,163.624329 
	C64.332954,168.707306 64.928459,173.304962 64.954346,177.905853 
	C65.062637,197.148865 64.961540,216.393005 65.051666,235.636200 
	C65.062218,237.887695 65.782082,240.135880 66.173119,242.385590 
z"/>
<path fill="#45B69E" opacity="1.000000" stroke="none" 
	d="
M123.346489,214.229813 
	C111.808617,219.808685 100.270737,225.387543 88.359253,230.580414 
	C87.657104,227.095078 87.058464,223.996979 87.044113,220.896164 
	C86.955246,201.695160 86.997742,182.493576 86.996613,163.292175 
	C97.681847,163.242020 108.367088,163.191864 119.534531,163.613785 
	C120.344894,166.700897 120.931503,169.313507 120.956306,171.931427 
	C121.061913,183.079895 120.840691,194.233826 121.108665,205.376862 
	C121.180023,208.344055 122.564758,211.279694 123.346489,214.229813 
z"/>
<path fill="#4ABB9E" opacity="1.000000" stroke="none" 
	d="
M86.533661,163.216187 
	C86.997742,182.493576 86.955246,201.695160 87.044113,220.896164 
	C87.058464,223.996979 87.657104,227.095078 87.998482,230.620972 
	C80.919937,234.677979 73.828568,238.308441 66.455154,242.162262 
	C65.782082,240.135880 65.062218,237.887695 65.051666,235.636200 
	C64.961540,216.393005 65.062637,197.148865 64.954346,177.905853 
	C64.928459,173.304962 64.332954,168.707306 63.994663,163.700256 
	C71.350166,163.241638 78.710442,163.190918 86.533661,163.216187 
z"/>
<path fill="#40AB98" opacity="1.000000" stroke="none" 
	d="
M123.694656,214.169220 
	C122.564758,211.279694 121.180023,208.344055 121.108665,205.376862 
	C120.840691,194.233826 121.061913,183.079895 120.956306,171.931427 
	C120.931503,169.313507 120.344894,166.700897 119.996490,163.683716 
	C130.384659,163.281601 140.793091,163.281601 152.057922,163.281601 
	C152.057922,175.930939 152.057922,188.444580 152.104721,201.417755 
	C142.781952,205.954391 133.412384,210.031525 123.694656,214.169220 
z"/>
<path fill="#48BA9E" opacity="1.000000" stroke="none" 
	d="
M66.410385,338.450104 
	C66.307312,325.961884 66.637154,313.629761 67.017014,301.299194 
	C67.077042,299.350830 67.363052,297.409363 68.198822,295.251892 
	C72.239906,297.350250 75.460800,299.970123 79.052155,301.900940 
	C84.565094,304.864899 90.332794,307.355042 96.002388,310.442139 
	C96.674927,315.000214 97.905571,319.169403 97.853745,323.322632 
	C97.791351,328.322052 96.638809,333.307861 95.958214,338.299561 
	C86.258743,338.401947 76.559273,338.504333 66.410385,338.450104 
z"/>
<path fill="#43B39E" opacity="1.000000" stroke="none" 
	d="
M96.407845,338.456909 
	C96.638809,333.307861 97.791351,328.322052 97.853745,323.322632 
	C97.905571,319.169403 96.674927,315.000214 96.340942,310.556763 
	C99.493240,311.543793 102.309402,312.829407 105.142456,314.076599 
	C109.744293,316.102448 114.357178,318.103241 119.181137,320.378204 
	C128.934586,325.424011 138.472305,330.206207 148.010010,334.988434 
	C147.714706,335.916840 147.419418,336.845245 147.060516,338.052246 
	C130.283783,338.425323 113.570625,338.519806 96.407845,338.456909 
z"/>
<path fill="#44B098" opacity="1.000000" stroke="none" 
	d="
M183.433960,192.660187 
	C177.233170,193.387054 170.935349,193.766022 164.226486,194.169708 
	C164.226486,186.849777 164.226486,180.302780 164.226486,174.806976 
	C170.157257,180.239594 176.747101,186.275940 183.433960,192.660187 
z"/>
<path fill="#3DAD9D" opacity="1.000000" stroke="none" 
	d="
M170.252548,297.961609 
	C167.516251,291.100769 162.442215,287.075928 155.886368,284.297791 
	C146.292633,280.232269 136.844330,275.823578 127.315445,271.023773 
	C131.568665,268.352905 135.840485,266.219391 140.476349,264.035278 
	C145.898529,261.681091 150.956665,259.377563 156.376648,257.021393 
	C161.470016,254.579514 166.201584,252.190277 170.933151,249.801041 
	C170.955658,263.248840 170.998016,276.696655 170.983337,290.144379 
	C170.980515,292.728210 170.753677,295.311768 170.252548,297.961609 
z"/>
<path fill="#1E89A6" opacity="1.000000" stroke="none" 
	d="
M148.373932,335.026520 
	C138.472305,330.206207 128.934586,325.424011 119.149963,320.023163 
	C118.373459,318.812134 117.951103,318.036957 117.298569,317.654175 
	C101.522079,308.400146 85.738983,299.156769 69.880966,290.043915 
	C68.900230,289.480316 67.294945,290.003510 65.980232,290.021057 
	C65.310608,288.259460 64.640991,286.497894 64.340103,284.371399 
	C69.863098,286.584412 75.158127,288.917297 80.146881,291.783325 
	C99.944191,303.156830 119.699333,314.606476 139.348145,326.234009 
	C144.781052,329.449036 149.792114,333.376923 154.996735,336.977722 
	C152.910446,336.340027 150.824158,335.702332 148.373932,335.026520 
z"/>
<path fill="#9B71A5" opacity="1.000000" stroke="none" 
	d="
M171.064911,249.534027 
	C166.201584,252.190277 161.470016,254.579514 156.318268,256.661133 
	C151.719955,254.557892 147.457397,252.931610 143.394104,250.905685 
	C140.780228,249.602448 138.459259,247.711731 136.007004,246.084320 
	C141.767853,243.418106 147.528687,240.751877 153.690903,238.414032 
	C155.354416,239.643127 156.506012,240.802780 157.898834,241.397354 
	C162.608154,243.407669 167.403000,245.217621 172.165161,247.104172 
	C171.842331,247.825119 171.519501,248.546051 171.064911,249.534027 
z"/>
<path fill="#2A86A6" opacity="1.000000" stroke="none" 
	d="
M155.414413,336.987152 
	C149.792114,333.376923 144.781052,329.449036 139.348145,326.234009 
	C119.699333,314.606476 99.944191,303.156830 80.146881,291.783325 
	C75.158127,288.917297 69.863098,286.584412 64.325745,283.999756 
	C63.471756,282.092560 63.000847,280.192078 62.805740,278.087219 
	C69.252670,281.041656 75.423798,284.200531 81.839676,287.993164 
	C86.529160,291.656860 90.817131,294.953888 95.445610,297.670837 
	C116.191772,309.849304 137.045593,321.844360 157.809631,333.992615 
	C158.791428,334.567047 159.286652,335.973114 160.008484,336.991882 
	C158.616348,336.993439 157.224228,336.995026 155.414413,336.987152 
z"/>
<path fill="#3985A7" opacity="1.000000" stroke="none" 
	d="
M160.382172,336.994263 
	C159.286652,335.973114 158.791428,334.567047 157.809631,333.992615 
	C137.045593,321.844360 116.191772,309.849304 95.445610,297.670837 
	C90.817131,294.953888 86.529160,291.656860 82.059570,288.269440 
	C91.578819,292.317871 101.122940,296.723785 110.898445,301.745789 
	C111.467140,302.897980 111.675819,303.651337 112.160583,303.938354 
	C123.994308,310.945129 135.883881,317.857727 147.703522,324.888000 
	C153.213196,328.165161 158.597565,331.652924 164.038727,335.045227 
	C162.944427,335.695709 161.850143,336.346191 160.382172,336.994263 
z"/>
<path fill="#AB6DA4" opacity="1.000000" stroke="none" 
	d="
M172.461273,246.884521 
	C167.403000,245.217621 162.608154,243.407669 157.898834,241.397354 
	C156.506012,240.802780 155.354416,239.643127 154.053238,238.380341 
	C155.896027,237.027557 157.742065,235.960449 159.666016,235.059784 
	C166.929993,231.659256 170.299835,225.942398 170.042450,217.570908 
	C172.590302,226.109665 177.340240,234.743546 173.934647,244.507538 
	C173.668472,245.270691 173.155609,245.947784 172.461273,246.884521 
z"/>
<path fill="#4484A7" opacity="1.000000" stroke="none" 
	d="
M164.400726,335.038025 
	C158.597565,331.652924 153.213196,328.165161 147.703522,324.888000 
	C135.883881,317.857727 123.994308,310.945129 112.160583,303.938354 
	C111.675819,303.651337 111.467140,302.897980 111.136719,301.989868 
	C122.566025,306.972290 133.988449,312.326782 145.747528,318.221558 
	C149.151443,320.883179 152.223923,322.996979 155.284668,325.127655 
	C159.531342,328.083954 163.769196,331.052856 168.010818,334.016388 
	C166.928131,334.354553 165.845444,334.692719 164.400726,335.038025 
z"/>
<path fill="#4D81A6" opacity="1.000000" stroke="none" 
	d="
M168.350769,333.975159 
	C163.769196,331.052856 159.531342,328.083954 155.284668,325.127655 
	C152.223923,322.996979 149.151443,320.883179 146.042725,318.415894 
	C149.370926,318.395569 152.740601,318.721222 156.599136,319.438049 
	C158.016663,320.696472 158.842682,321.721954 159.892212,322.403015 
	C163.900436,325.003906 167.980621,327.493896 172.033936,330.025299 
	C170.919540,331.328186 169.805130,332.631073 168.350769,333.975159 
z"/>
<path fill="#5F7DA5" opacity="1.000000" stroke="none" 
	d="
M172.340057,329.850586 
	C167.980621,327.493896 163.900436,325.003906 159.892212,322.403015 
	C158.842682,321.721954 158.016663,320.696472 157.040497,319.488739 
	C158.652649,318.414337 160.312286,317.680359 162.638947,317.030396 
	C167.206375,319.078003 171.106766,321.041626 175.007172,323.005249 
	C174.220169,325.228790 173.433182,327.452301 172.340057,329.850586 
z"/>
<path fill="#7679A5" opacity="1.000000" stroke="none" 
	d="
M175.020309,322.575623 
	C171.106766,321.041626 167.206375,319.078003 162.969940,316.951141 
	C163.837936,315.587769 165.041946,314.387634 166.847595,313.178162 
	C169.662613,313.750031 171.876022,314.331268 174.089417,314.912506 
	C174.404099,317.323669 174.718765,319.734863 175.020309,322.575623 
z"/>
<path fill="#8F73A5" opacity="1.000000" stroke="none" 
	d="
M174.055603,314.528412 
	C171.876022,314.331268 169.662613,313.750031 167.121368,313.016785 
	C167.870560,309.474030 168.947617,306.083344 170.098480,302.275360 
	C171.455460,305.953491 172.738617,310.048920 174.055603,314.528412 
z"/>
<path fill="#7679A5" opacity="1.000000" stroke="none" 
	d="
M340.309875,329.905457 
	C327.764374,334.593231 319.189423,330.534943 315.216919,318.232910 
	C314.000946,314.467224 313.076630,310.607361 312.014587,306.397461 
	C318.243439,312.772400 325.471741,315.105835 334.735687,311.208832 
	C337.072052,312.302673 338.793701,313.230896 340.581451,314.006927 
	C346.094238,316.399719 351.632263,318.734436 357.160461,321.091705 
	C351.646667,323.972595 346.132843,326.853455 340.309875,329.905457 
z"/>
<path fill="#6B7BA5" opacity="1.000000" stroke="none" 
	d="
M357.522400,321.067169 
	C351.632263,318.734436 346.094238,316.399719 340.581451,314.006927 
	C338.793701,313.230896 337.072052,312.302673 335.120575,311.143921 
	C343.038147,306.912659 351.155273,302.981598 359.676697,299.382385 
	C361.004761,300.506012 361.805481,301.594452 362.873810,302.037567 
	C367.230286,303.844513 371.746399,305.282501 376.035767,307.226807 
	C377.594299,307.933228 378.683807,309.674347 379.987305,310.943390 
	C376.130005,312.778320 372.272705,314.613251 368.206543,316.719849 
	C364.626526,318.341919 361.255432,319.692291 357.522400,321.067169 
z"/>
<path fill="#5F7DA5" opacity="1.000000" stroke="none" 
	d="
M380.316589,310.828918 
	C378.683807,309.674347 377.594299,307.933228 376.035767,307.226807 
	C371.746399,305.282501 367.230286,303.844513 362.873810,302.037567 
	C361.805481,301.594452 361.004761,300.506012 360.038177,299.352661 
	C367.428680,295.368317 374.862061,291.745575 382.695190,288.449951 
	C384.476501,289.831177 385.728546,291.156067 387.263245,291.889984 
	C392.466309,294.378235 397.769348,296.657440 403.034210,299.016479 
	C401.362915,300.399841 399.691650,301.783203 397.965210,303.490723 
	C392.155334,306.114716 386.400604,308.414581 380.316589,310.828918 
z"/>
<path fill="#567FA6" opacity="1.000000" stroke="none" 
	d="
M403.409668,299.010071 
	C397.769348,296.657440 392.466309,294.378235 387.263245,291.889984 
	C385.728546,291.156067 384.476501,289.831177 383.055298,288.424530 
	C389.777466,284.796173 396.539276,281.520386 403.696533,278.519287 
	C407.352692,280.475586 410.700745,282.010681 413.846619,283.885071 
	C416.363098,285.384460 418.633759,287.296417 421.013519,289.025238 
	C415.270721,292.351379 409.527893,295.677490 403.409668,299.010071 
z"/>
<path fill="#4B81A6" opacity="1.000000" stroke="none" 
	d="
M421.319061,288.864014 
	C418.633759,287.296417 416.363098,285.384460 413.846619,283.885071 
	C410.700745,282.010681 407.352692,280.475586 404.047485,278.441803 
	C408.699951,274.297424 413.846924,270.932281 417.965698,266.591553 
	C421.990143,262.350250 421.037384,256.386688 421.078247,250.496338 
	C423.097748,257.793182 425.400360,265.473450 426.885529,273.308594 
	C427.991272,279.141998 425.352448,284.239166 421.319061,288.864014 
z"/>
<path fill="#4484A7" opacity="1.000000" stroke="none" 
	d="
M327.988251,249.040634 
	C321.755768,247.256119 317.799744,243.138184 315.891205,237.035614 
	C314.515320,232.636185 313.296783,228.187531 312.009277,223.352158 
	C317.211548,226.234940 322.316040,229.694061 327.645020,232.763367 
	C331.708557,235.103775 336.056732,236.949936 340.589722,239.437531 
	C338.407227,241.508194 335.874298,243.102020 333.432007,244.824371 
	C331.558197,246.145782 329.798615,247.629242 327.988251,249.040634 
z"/>
<path fill="#4D81A6" opacity="1.000000" stroke="none" 
	d="
M328.211121,249.309662 
	C329.798615,247.629242 331.558197,246.145782 333.432007,244.824371 
	C335.874298,243.102020 338.407227,241.508194 340.947205,239.519196 
	C347.198029,241.839371 353.402802,244.499420 359.809998,247.745163 
	C357.005768,250.221069 353.925354,252.006348 351.022766,254.044846 
	C349.523529,255.097794 348.340057,256.600372 347.013916,257.899811 
	C340.820618,255.126114 334.627289,252.352402 328.211121,249.309662 
z"/>
<path fill="#567FA6" opacity="1.000000" stroke="none" 
	d="
M347.332153,258.072876 
	C348.340057,256.600372 349.523529,255.097794 351.022766,254.044846 
	C353.925354,252.006348 357.005768,250.221069 360.085388,247.952759 
	C365.343628,249.778030 370.528931,251.981354 376.599091,254.560684 
	C370.074036,257.484039 364.357147,260.045319 358.298859,262.684998 
	C354.521759,261.257568 351.086060,259.751740 347.332153,258.072876 
z"/>
<path fill="#4484A7" opacity="1.000000" stroke="none" 
	d="
M311.973938,222.712555 
	C311.772278,222.722000 311.491760,222.436020 311.145325,221.845093 
	C311.351318,221.832474 311.623169,222.124802 311.973938,222.712555 
z"/>
<path fill="#8F73A5" opacity="1.000000" stroke="none" 
	d="
M135.646973,246.109253 
	C138.459259,247.711731 140.780228,249.602448 143.394104,250.905685 
	C147.457397,252.931610 151.719955,254.557892 155.956436,256.713806 
	C150.956665,259.377563 145.898529,261.681091 140.148834,263.864807 
	C134.779343,261.823547 130.032028,260.051086 125.452278,257.918732 
	C123.107330,256.826904 121.062225,255.091095 118.881607,253.646317 
	C124.350044,251.142273 129.818481,248.638229 135.646973,246.109253 
z"/>
<path fill="#8577A6" opacity="1.000000" stroke="none" 
	d="
M118.521873,253.746857 
	C121.062225,255.091095 123.107330,256.826904 125.452278,257.918732 
	C130.032028,260.051086 134.779343,261.823547 139.784790,263.915436 
	C135.840485,266.219391 131.568665,268.352905 127.073441,270.766724 
	C119.022331,267.707214 111.194641,264.367401 102.565567,260.685638 
	C108.347816,258.150452 113.254982,255.998932 118.521873,253.746857 
z"/>
<path fill="#118CA6" opacity="1.000000" stroke="none" 
	d="
M66.015244,290.362579 
	C67.294945,290.003510 68.900230,289.480316 69.880966,290.043915 
	C85.738983,299.156769 101.522079,308.400146 117.298569,317.654175 
	C117.951103,318.036957 118.373459,318.812134 118.934219,319.759552 
	C114.357178,318.103241 109.744293,316.102448 105.142456,314.076599 
	C102.309402,312.829407 99.493240,311.543793 96.330940,310.160828 
	C90.332794,307.355042 84.565094,304.864899 79.052155,301.900940 
	C75.460800,299.970123 72.239906,297.350250 68.528999,294.977325 
	C67.486710,293.511749 66.768478,292.107941 66.015244,290.362579 
z"/>
</svg>