<?xml version="1.0" encoding="UTF-8"?>
<svg xmlns="http://www.w3.org/2000/svg" viewBox="0 0 64 64" width="64" height="64">
  <defs>
    <linearGradient id="g" x1="0" x2="1" y1="0" y2="1">
      <stop offset="0" stop-color="#0ea5a4"/>
      <stop offset="1" stop-color="#2563eb"/>
    </linearGradient>
  </defs>

  <!-- rounded square background -->
  <rect x="2" y="2" width="60" height="60" rx="10" ry="10" fill="url(#g)" />

  <!-- shield shape -->
  <path d="M32 14c-7 0-12 5-12 11v6c0 6 5 11 12 11s12-5 12-11v-6c0-6-5-11-12-11z" fill="#fff" opacity="0.95"/>

  <!-- padlock body -->
  <rect x="24" y="26" width="16" height="12" rx="2" ry="2" fill="#0f172a"/>

  <!-- padlock shackle -->
  <path d="M30 24v-2c0-2 1.8-4 4-4s4 2 4 4v2" stroke="#0f172a" stroke-width="3" fill="none" stroke-linecap="round"/>

  <!-- small keyhole -->
  <circle cx="32" cy="32" r="1.6" fill="#fff"/>
  <rect x="31" y="34" width="2" height="4" fill="#fff" rx="0.5"/>

  <!-- subtle inner highlight -->
  <path d="M10 10 L54 10 L54 54 L10 54 Z" fill="none" stroke="#ffffff" stroke-opacity="0.06" stroke-width="2"/>
</svg>
